# xmcd CD database file
#
# Track frame offsets:
#	150
#	18970
#	41786
#	58426
#	73930
#	92142
#	108481
#	132458
#	150798
#	171134
#	192175
#
# Disc length: 2857 seconds
#
# Revision: 0
# Processed by: cddbd v1.4PL0 Copyright (c) Steve Scherf et al.
# Submitted via: CDex 1.50Beta6
#
DISCID=980b270b
DTITLE=Dakota - Klaidoòa pasakas
DYEAR=2002
DGENRE=Country
TTITLE0=Piena ceïð
TTITLE1=Kurtizâòu ugunskurs
TTITLE2=Mazliet cerîbu
TTITLE3=Klaidoòa pasaka
TTITLE4=Guli, mazais kovboj
TTITLE5=Pçdçjais vilciens
TTITLE6=Muzikantu iela
TTITLE7=Tâ diena
TTITLE8=Vairâk mani nemeklç
TTITLE9=Neskaties mçnesî
TTITLE10=Aizej tad, kad snigs
EXTD=YEAR: 2002
EXTT0=
EXTT1=
EXTT2=
EXTT3=
EXTT4=
EXTT5=
EXTT6=
EXTT7=
EXTT8=
EXTT9=
EXTT10=
PLAYORDER=
